<svg version="1.2" xmlns="http://www.w3.org/2000/svg" viewBox="0 0 108 57" width="108" height="57">
	<title>Habita-svg</title>
	<style>
		.s0 { fill: #000000 } 
	</style>
	<g>
		<g>
			<path fill-rule="evenodd" class="s0" d="m63.4 11.8c-1 1-2.7 1-3.6 0-1-0.9-1-2.6 0-3.5 2.7-2.6 5.8-4.7 9.2-6.1 3.3-1.4 6.9-2.1 10.8-2.1 7.8 0 14.9 3.2 19.9 8.2 5.1 5.1 8.3 12.2 8.3 19.9 0 7.6-3.2 14.8-8.3 19.8-5 5.1-12.2 8.2-19.9 8.2-7.7 0-14.9-3.1-20-8.2-5-5-8.2-12.2-8.2-19.8 0-6.4-2.7-12.2-6.9-16.4-1.7-1.6-3.6-3-5.6-4.1-2.4-1.2-4.9-1.1-7.3 0.2-2.3 1.3-3.5 3.6-3.5 6.2v27.9c0 2.6 1.3 4.9 3.5 6.2 2.3 1.3 5 1.5 7.3 0.3 2.1-1.1 4-2.5 5.5-4.1 1-1 2.7-1 3.6 0 1 1 1 2.6 0 3.5-2.7 2.6-5.8 4.7-9.2 6.1-3.3 1.5-6.9 2.1-10.8 2.1-7.8 0-14.9-3.2-19.9-8.2-5.1-5-8.3-12.1-8.3-19.8 0-7.8 3.2-14.7 8.3-19.9 5.1-5 12.2-8.2 19.9-8.2 7.7 0 14.9 3.2 20 8.2 5 5.1 8.2 12.2 8.2 19.9 0 6.3 2.7 12.1 6.9 16.3 1.6 1.6 3.5 3 5.6 4.1 2.3 1.2 4.9 1.2 7.3-0.3 2.3-1.3 3.5-3.6 3.5-6.2v-27.9c0-2.6-1.3-4.9-3.5-6.2-2.4-1.3-5-1.4-7.3-0.2-2.1 1.1-4 2.5-5.5 4.1z"/>
		</g>
	</g>
</svg>